<?xml version="1.0" encoding="utf-8"?>
<!-- Generator: Adobe Illustrator 21.0.2, SVG Export Plug-In . SVG Version: 6.00 Build 0)  -->
<svg version="1.1" xmlns="http://www.w3.org/2000/svg" xmlns:xlink="http://www.w3.org/1999/xlink" x="0px" y="0px"
	 viewBox="0 0 208 112.6" style="enable-background:new 0 0 208 112.6;" xml:space="preserve">
<style type="text/css">
	.st0{fill:#006699;stroke:#000000;stroke-miterlimit:10;}
	.st1{fill:#FFFFFF;}
</style>
<g id="Layer_3">
	<rect x="-4.9" y="-5.6" class="st0" width="221.3" height="123.1"/>
</g>
<g id="Layer_2">
	<g id="Layer_1">
		<g>
			<path class="st1" d="M11.7,11h10.8c1.7,0,3.1,0.2,4.3,0.6c1.2,0.4,2.2,1,3,1.8c0.8,0.7,1.4,1.6,1.8,2.6c0.4,1,0.6,2,0.6,3.2
				c0,1-0.2,1.9-0.5,2.7c-0.4,0.8-0.8,1.5-1.3,2.1c-0.5,0.6-1.1,1.1-1.7,1.4c-0.6,0.4-1.2,0.6-1.7,0.7c0.6,0.1,1.4,0.3,2.2,0.6
				c0.8,0.3,1.6,0.8,2.3,1.4c0.7,0.6,1.3,1.4,1.8,2.4c0.5,1,0.7,2.2,0.7,3.6c0,1.7-0.3,3.2-0.9,4.3c-0.6,1.1-1.5,2.1-2.5,2.8
				c-1.1,0.7-2.3,1.2-3.8,1.5c-1.5,0.3-3,0.4-4.7,0.4H11.7V11z M21.9,24.3c0.7,0,1.4-0.1,2.1-0.3c0.7-0.2,1.3-0.5,1.9-0.8
				c0.6-0.4,1-0.9,1.4-1.5c0.4-0.6,0.5-1.3,0.5-2.2c0-1-0.2-1.7-0.5-2.3c-0.4-0.6-0.8-1.1-1.4-1.4c-0.6-0.3-1.2-0.6-1.9-0.7
				C23.3,15,22.6,15,21.9,15h-5.7v9.4H21.9z M21.7,39c0.8,0,1.7,0,2.6-0.1c0.9-0.1,1.7-0.3,2.5-0.7c0.8-0.4,1.4-0.9,1.8-1.6
				c0.5-0.7,0.7-1.6,0.7-2.9c0-1.2-0.2-2.1-0.7-2.8c-0.5-0.7-1.1-1.3-1.8-1.7c-0.7-0.4-1.5-0.7-2.4-0.8c-0.9-0.1-1.7-0.2-2.5-0.2
				h-5.9V39H21.7z"/>
			<path class="st1" d="M39.3,43V22.8c0-0.2,0-0.5,0-0.8c0-0.3,0-0.8,0-1.4h4.1l0.1,3.6c0.3-0.4,0.6-0.8,1-1.3
				c0.4-0.5,0.9-0.9,1.5-1.3c0.6-0.4,1.3-0.7,2.1-1c0.8-0.3,1.7-0.4,2.7-0.4c0.5,0,0.9,0,1.3,0.1c0.4,0.1,0.8,0.2,1.1,0.3l-1,4
				c-0.6-0.2-1.3-0.3-2.2-0.3c-0.9,0-1.8,0.2-2.6,0.5c-0.8,0.4-1.5,0.8-2,1.5s-1,1.4-1.4,2.2c-0.3,0.8-0.5,1.7-0.5,2.6V43H39.3z"/>
			<path class="st1" d="M76,39.7c-0.3,0.3-0.6,0.7-1.2,1.1c-0.5,0.4-1.2,0.9-2,1.3c-0.8,0.4-1.8,0.8-2.9,1.1s-2.4,0.5-3.8,0.5
				c-1.7,0-3.3-0.3-4.8-0.9c-1.4-0.6-2.7-1.4-3.7-2.4c-1-1.1-1.8-2.3-2.4-3.8c-0.6-1.5-0.8-3.1-0.8-4.9c0-1.6,0.3-3.2,0.8-4.6
				c0.5-1.4,1.3-2.7,2.3-3.7c1-1,2.2-1.9,3.5-2.5c1.4-0.6,2.9-0.9,4.5-0.9c1.9,0,3.6,0.4,4.9,1.1c1.4,0.7,2.5,1.7,3.4,2.9
				c0.9,1.2,1.5,2.6,1.9,4.2c0.4,1.6,0.6,3.2,0.6,4.9H58.9c0,1,0.2,1.9,0.6,2.7c0.4,0.8,0.9,1.6,1.6,2.2c0.7,0.6,1.4,1.1,2.3,1.4
				c0.9,0.4,1.8,0.5,2.7,0.5c1.9,0,3.4-0.3,4.7-1c1.2-0.6,2.1-1.3,2.6-1.9L76,39.7z M72.1,29.9c-0.1-1.7-0.7-3.2-1.8-4.4
				c-1.1-1.2-2.6-1.8-4.6-1.8c-1,0-1.9,0.2-2.8,0.5c-0.8,0.4-1.5,0.8-2.1,1.4c-0.6,0.6-1,1.2-1.3,2c-0.3,0.8-0.5,1.5-0.5,2.3H72.1z"
				/>
			<path class="st1" d="M95.3,40.3c-0.8,1.1-1.9,2-3.3,2.5c-1.4,0.5-2.8,0.8-4.2,0.8c-0.9,0-1.8-0.1-2.8-0.4
				c-0.9-0.2-1.7-0.6-2.5-1.2c-0.8-0.6-1.4-1.3-1.8-2.2C80.3,39,80,38,80,36.7c0-2.4,0.8-4.3,2.5-5.8c1.7-1.4,4.1-2.2,7.3-2.2
				c0.5,0,1.1,0,1.6,0c0.6,0,1.1,0.1,1.6,0.1c0.5,0,1,0.1,1.3,0.1c0.4,0,0.7,0.1,0.8,0.1v-0.8c0-1.7-0.5-2.9-1.5-3.6
				c-1-0.7-2.4-1.1-4.1-1.1c-1.7,0-3,0.2-4,0.7c-1,0.5-1.8,0.9-2.5,1.4l-2-2.9c0.4-0.3,0.8-0.6,1.4-1c0.5-0.3,1.2-0.6,1.9-0.9
				c0.7-0.3,1.6-0.5,2.5-0.7c0.9-0.2,2-0.3,3.2-0.3c2.9,0,5.1,0.7,6.8,2.1c1.6,1.4,2.5,3.4,2.5,5.9v13c0,0.3,0,0.5,0,0.8
				c0,0.3,0,0.7,0,1.1h-4L95.3,40.3z M95.3,32.4c-0.1,0-0.4-0.1-0.7-0.1c-0.4,0-0.8-0.1-1.3-0.1c-0.5,0-1-0.1-1.5-0.1
				c-0.5,0-1.1,0-1.6,0c-1.2,0-2.2,0.1-3,0.4c-0.8,0.3-1.3,0.6-1.8,1.1C85,34,84.7,34.5,84.5,35c-0.2,0.5-0.2,1-0.2,1.5
				c0,1.2,0.4,2.1,1.2,2.8c0.8,0.6,2,0.9,3.5,0.9c0.8,0,1.6-0.1,2.4-0.4c0.8-0.3,1.4-0.7,2-1.2c0.6-0.5,1-1,1.4-1.7
				c0.4-0.6,0.5-1.3,0.5-2V32.4z"/>
			<path class="st1" d="M105.2,11h4.3v18.9l9.4-9.2h5.2l-8.4,8.3l9.7,14.1h-5.1l-7.6-11.2l-3.1,3V43h-4.3V11z"/>
			<path class="st1" d="M128.7,11.9h4.8v4.8h-4.8V11.9z M129,20.7h4.3V43H129V20.7z"/>
			<path class="st1" d="M139.4,43V23c0-0.3,0-0.6,0-0.9c0-0.3,0-0.8,0-1.4h4.1l0.1,3.4c0.3-0.4,0.6-0.8,1.1-1.3
				c0.4-0.5,0.9-0.9,1.5-1.3c0.6-0.4,1.3-0.7,2.1-1c0.8-0.3,1.7-0.4,2.8-0.4c2.9,0,5.1,0.8,6.5,2.5c1.4,1.7,2.1,4,2.1,6.9V43h-4.3
				V30c0-2.1-0.4-3.6-1.3-4.6c-0.9-1-2.2-1.5-3.8-1.5c-1.2,0-2.3,0.3-3.1,0.8c-0.8,0.5-1.5,1.2-2,2c-0.5,0.8-0.9,1.7-1.1,2.8
				c-0.2,1-0.3,2.1-0.3,3.2V43H139.4z"/>
			<path class="st1" d="M168.5,47.6c0.7,0.5,1.6,1,2.7,1.3c1.1,0.4,2.4,0.6,3.9,0.6c2.1,0,3.7-0.6,4.8-1.8c1.1-1.2,1.6-2.7,1.6-4.7
				v-2.7c-0.2,0.2-0.5,0.5-0.9,0.8c-0.4,0.3-0.8,0.7-1.4,1c-0.6,0.3-1.2,0.6-2,0.8c-0.8,0.2-1.6,0.4-2.6,0.4c-1.6,0-3.1-0.3-4.3-0.8
				c-1.3-0.6-2.3-1.3-3.2-2.3c-0.9-1-1.5-2.1-2-3.5c-0.4-1.4-0.7-2.8-0.7-4.4c0-1.7,0.3-3.3,0.9-4.8c0.6-1.5,1.5-2.7,2.6-3.8
				c1.1-1.1,2.4-1.9,4-2.5c1.5-0.6,3.2-0.9,5.1-0.9c1.8,0,3.5,0.2,5.1,0.5c1.6,0.3,2.8,0.7,3.8,1.1V43c0,3.2-0.9,5.7-2.8,7.5
				c-1.9,1.8-4.5,2.7-7.9,2.7c-2.3,0-4.1-0.2-5.4-0.7c-1.3-0.5-2.4-1.1-3.3-1.7L168.5,47.6z M181.6,24.6c-0.3-0.1-0.8-0.2-1.5-0.4
				c-0.7-0.2-1.7-0.3-3.1-0.3c-1.2,0-2.3,0.2-3.3,0.6c-1,0.4-1.8,1-2.6,1.7c-0.7,0.7-1.3,1.6-1.7,2.6c-0.4,1-0.6,2.1-0.6,3.3
				c0,1,0.1,2,0.4,2.9c0.2,0.9,0.6,1.7,1.2,2.4c0.5,0.7,1.2,1.2,2,1.6c0.8,0.4,1.8,0.6,2.9,0.6c1.1,0,2-0.2,2.8-0.5
				c0.8-0.3,1.5-0.7,2-1.3c0.5-0.5,0.9-1.1,1.2-1.8c0.3-0.7,0.4-1.3,0.4-2V24.6z"/>
			<path class="st1" d="M11.7,68.6h10.8c1.7,0,3.1,0.2,4.3,0.6c1.2,0.4,2.2,1,3,1.8c0.8,0.7,1.4,1.6,1.8,2.6c0.4,1,0.6,2,0.6,3.2
				c0,1-0.2,1.9-0.5,2.7c-0.4,0.8-0.8,1.5-1.3,2.1c-0.5,0.6-1.1,1.1-1.7,1.4c-0.6,0.4-1.2,0.6-1.7,0.7c0.6,0.1,1.4,0.3,2.2,0.6
				c0.8,0.3,1.6,0.8,2.3,1.4c0.7,0.6,1.3,1.4,1.8,2.4c0.5,1,0.7,2.2,0.7,3.6c0,1.7-0.3,3.2-0.9,4.3c-0.6,1.1-1.5,2.1-2.5,2.8
				c-1.1,0.7-2.3,1.2-3.8,1.5c-1.5,0.3-3,0.4-4.7,0.4H11.7V68.6z M21.9,81.9c0.7,0,1.4-0.1,2.1-0.3c0.7-0.2,1.3-0.5,1.9-0.8
				c0.6-0.4,1-0.9,1.4-1.5c0.4-0.6,0.5-1.3,0.5-2.2c0-1-0.2-1.7-0.5-2.3c-0.4-0.6-0.8-1.1-1.4-1.4s-1.2-0.6-1.9-0.7
				c-0.7-0.1-1.4-0.2-2.1-0.2h-5.7v9.4H21.9z M21.7,96.6c0.8,0,1.7,0,2.6-0.1c0.9-0.1,1.7-0.3,2.5-0.7c0.8-0.4,1.4-0.9,1.8-1.6
				c0.5-0.7,0.7-1.6,0.7-2.9c0-1.2-0.2-2.1-0.7-2.8c-0.5-0.7-1.1-1.3-1.8-1.7c-0.7-0.4-1.5-0.7-2.4-0.8c-0.9-0.1-1.7-0.2-2.5-0.2
				h-5.9v10.8H21.7z"/>
			<path class="st1" d="M39.3,100.6V80.4c0-0.2,0-0.5,0-0.8c0-0.3,0-0.8,0-1.4h4.1l0.1,3.6c0.3-0.4,0.6-0.8,1-1.3
				c0.4-0.5,0.9-0.9,1.5-1.3c0.6-0.4,1.3-0.7,2.1-1c0.8-0.3,1.7-0.4,2.7-0.4c0.5,0,0.9,0,1.3,0.1c0.4,0.1,0.8,0.2,1.1,0.3l-1,4
				C51.8,82.1,51,82,50.1,82c-0.9,0-1.8,0.2-2.6,0.5c-0.8,0.4-1.5,0.8-2,1.5s-1,1.4-1.4,2.2c-0.3,0.8-0.5,1.7-0.5,2.6v11.8H39.3z"/>
			<path class="st1" d="M76,97.3c-0.3,0.3-0.6,0.7-1.2,1.1c-0.5,0.4-1.2,0.9-2,1.3c-0.8,0.4-1.8,0.8-2.9,1.1s-2.4,0.5-3.8,0.5
				c-1.7,0-3.3-0.3-4.8-0.9C60,99.8,58.7,99,57.7,98c-1-1.1-1.8-2.3-2.4-3.8c-0.6-1.5-0.8-3.1-0.8-4.9c0-1.6,0.3-3.2,0.8-4.6
				c0.5-1.4,1.3-2.7,2.3-3.7c1-1,2.2-1.9,3.5-2.5c1.4-0.6,2.9-0.9,4.5-0.9c1.9,0,3.6,0.4,4.9,1.1c1.4,0.7,2.5,1.7,3.4,2.9
				c0.9,1.2,1.5,2.6,1.9,4.2c0.4,1.6,0.6,3.2,0.6,4.9H58.9c0,1,0.2,1.9,0.6,2.7c0.4,0.8,0.9,1.6,1.6,2.2c0.7,0.6,1.4,1.1,2.3,1.4
				c0.9,0.4,1.8,0.5,2.7,0.5c1.9,0,3.4-0.3,4.7-1c1.2-0.6,2.1-1.3,2.6-1.9L76,97.3z M72.1,87.5c-0.1-1.7-0.7-3.2-1.8-4.4
				c-1.1-1.2-2.6-1.8-4.6-1.8c-1,0-1.9,0.2-2.8,0.5c-0.8,0.4-1.5,0.8-2.1,1.4c-0.6,0.6-1,1.2-1.3,2c-0.3,0.8-0.5,1.5-0.5,2.3H72.1z"
				/>
			<path class="st1" d="M86.9,89.1l-8-10.8h5.4l5.4,7.4l5.3-7.4h4.8l-7.8,10.5l8.9,11.9h-5.4l-6.2-8.4l-6.1,8.4h-4.8L86.9,89.1z"/>
			<path class="st1" d="M104.1,69.5h4.8v4.8h-4.8V69.5z M104.4,78.3h4.3v22.3h-4.3V78.3z"/>
			<path class="st1" d="M116.8,81.9h-4v-3.6h4V71h4.3v7.3h6.5v3.6h-6.5v11c0,1.8,0.3,3,0.8,3.7c0.6,0.7,1.4,1,2.4,1
				c0.8,0,1.5-0.1,2.1-0.4c0.5-0.3,1.1-0.6,1.6-1.2l2,2.6c-0.9,0.9-1.9,1.5-2.9,1.9c-1,0.4-2.1,0.6-3.5,0.6c-2.4,0-4.1-0.6-5.2-1.9
				c-1.1-1.3-1.7-3.3-1.7-6V81.9z"/>
		</g>
	</g>
	<g>
	</g>
	<g>
	</g>
	<g>
	</g>
	<g>
	</g>
	<g>
	</g>
</g>
</svg>
