<svg id="Layer_1" data-name="Layer 1" xmlns="http://www.w3.org/2000/svg" viewBox="0 0 728.73 109.59"><defs><style>.cls-1{fill:#069;stroke:#069;stroke-miterlimit:10;}.cls-2{fill:#fff;}</style></defs><title>v3LogoBrexit</title><rect class="cls-1" x="0.5" y="0.5" width="727.73" height="108.59"/><path class="cls-2" d="M63.5,18.41H79.78a19.38,19.38,0,0,1,6.48,1A13.06,13.06,0,0,1,90.79,22a10.65,10.65,0,0,1,2.7,3.89,12.6,12.6,0,0,1,.9,4.75,10.09,10.09,0,0,1-.79,4.1,12.39,12.39,0,0,1-1.94,3.13A9.64,9.64,0,0,1,89.1,40a8.5,8.5,0,0,1-2.56,1,16,16,0,0,1,3.24.9A11.37,11.37,0,0,1,93.17,44a11.12,11.12,0,0,1,2.66,3.56A12.26,12.26,0,0,1,96.91,53a13.27,13.27,0,0,1-1.4,6.44,11.5,11.5,0,0,1-3.82,4.14A15.86,15.86,0,0,1,86,65.78a36.68,36.68,0,0,1-7.06.65H63.5Zm15.26,20a13,13,0,0,0,3.17-.4,9.14,9.14,0,0,0,2.88-1.26,6.65,6.65,0,0,0,2.09-2.23,6.51,6.51,0,0,0,.79-3.31,6.79,6.79,0,0,0-.79-3.49,5.82,5.82,0,0,0-2.09-2.09,8.24,8.24,0,0,0-2.88-1,20.15,20.15,0,0,0-3.17-.25H70.2v14Zm-.22,22a36.4,36.4,0,0,0,3.89-.22,11.56,11.56,0,0,0,3.71-1,6.89,6.89,0,0,0,2.77-2.34A7.39,7.39,0,0,0,90,52.61a7.48,7.48,0,0,0-1-4.18,7.89,7.89,0,0,0-2.66-2.52,10.52,10.52,0,0,0-3.56-1.26A22.75,22.75,0,0,0,79,44.33H70.2V60.45Z" transform="translate(12.69 12.19)"/><path class="cls-2" d="M105,66.43V35q0-.65-.07-2.09h6.19l.22,5.4a17.29,17.29,0,0,1,1.51-1.91,11.21,11.21,0,0,1,2.27-1.91,14.23,14.23,0,0,1,3.1-1.48,12.41,12.41,0,0,1,4.07-.61,12.62,12.62,0,0,1,2,.14,9.36,9.36,0,0,1,1.69.43l-1.44,6a9.57,9.57,0,0,0-10.22,2.48,10.67,10.67,0,0,0-2.05,3.28,10.47,10.47,0,0,0-.76,4V66.43Z" transform="translate(12.69 12.19)"/><path class="cls-2" d="M159.91,61.53a20.42,20.42,0,0,1-1.73,1.66,14.57,14.57,0,0,1-3,1.94,23,23,0,0,1-4.32,1.62,21.37,21.37,0,0,1-5.65.68,19,19,0,0,1-7.13-1.3,15.78,15.78,0,0,1-5.54-3.67A16.45,16.45,0,0,1,129,56.78a20.49,20.49,0,0,1-1.26-7.34A19.09,19.09,0,0,1,129,42.56,16.42,16.42,0,0,1,132.41,37a16.59,16.59,0,0,1,5.29-3.71,16.32,16.32,0,0,1,6.73-1.37,15.53,15.53,0,0,1,7.42,1.66A14.78,14.78,0,0,1,156.92,38a18.82,18.82,0,0,1,2.92,6.26,28.54,28.54,0,0,1,.94,7.34H134.35a10.09,10.09,0,0,0,1,4.1,10.38,10.38,0,0,0,2.41,3.24,11.64,11.64,0,0,0,3.46,2.16,10.75,10.75,0,0,0,4.1.79,14.94,14.94,0,0,0,7-1.44,14.29,14.29,0,0,0,4-2.81Zm-5.83-14.76a10.85,10.85,0,0,0-2.74-6.62,8.79,8.79,0,0,0-6.91-2.74,10.36,10.36,0,0,0-4.14.79,10,10,0,0,0-3.13,2.09,9.37,9.37,0,0,0-2,3,9.84,9.84,0,0,0-.79,3.49Z" transform="translate(12.69 12.19)"/><path class="cls-2" d="M188.93,62.4A11.17,11.17,0,0,1,184,66.14a16.83,16.83,0,0,1-6.3,1.22,16.23,16.23,0,0,1-4.14-.54,10.81,10.81,0,0,1-3.74-1.8,9.46,9.46,0,0,1-2.74-3.24,10.32,10.32,0,0,1-1-4.86,10.81,10.81,0,0,1,3.78-8.64Q173.59,45,180.72,45q1.15,0,2.45.07l2.45.14,2,.14c.58,0,1,.1,1.22.14V44.33q0-3.74-2.27-5.36a10.41,10.41,0,0,0-6.16-1.62,14.5,14.5,0,0,0-6,1,23.9,23.9,0,0,0-3.74,2.12l-3-4.39a15.83,15.83,0,0,1,2.09-1.44,18,18,0,0,1,2.88-1.33,23.5,23.5,0,0,1,3.74-1,26.14,26.14,0,0,1,4.82-.4q6.48,0,10.19,3.13T195,44V64.74q0,.69.07,1.69h-6Zm-.07-11.81c-.19,0-.56-.11-1.12-.18s-1.19-.13-1.91-.18l-2.3-.14Q182.3,50,181.15,50a12.58,12.58,0,0,0-4.43.65,7.51,7.51,0,0,0-2.66,1.62,5.16,5.16,0,0,0-1.33,2.16,7.8,7.8,0,0,0-.36,2.27,4.85,4.85,0,0,0,1.87,4.14,8.47,8.47,0,0,0,5.18,1.4,9.87,9.87,0,0,0,3.56-.65,10.49,10.49,0,0,0,3-1.73,8.73,8.73,0,0,0,2.09-2.52,6.05,6.05,0,0,0,.79-3Z" transform="translate(12.69 12.19)"/><path class="cls-2" d="M203.83,18.41h6.48V46.7l14-13.75h7.78L219.46,45.33,234,66.43h-7.7L214.92,49.65l-4.61,4.46V66.43h-6.48Z" transform="translate(12.69 12.19)"/><path class="cls-2" d="M239,19.7h7.27V27H239Zm.43,13.25h6.48V66.43H239.4Z" transform="translate(12.69 12.19)"/><path class="cls-2" d="M255.09,66.43V35.07q0-.68-.07-2.12h6.19l.22,5q.65-.86,1.58-1.91a10.83,10.83,0,0,1,2.3-1.91,13.61,13.61,0,0,1,3.2-1.44,13.81,13.81,0,0,1,4.14-.58q6.55,0,9.72,3.82t3.17,10.37V66.43h-6.48V46.85q0-4.68-2-6.88a7.33,7.33,0,0,0-5.69-2.2,8.79,8.79,0,0,0-4.68,1.15,8.88,8.88,0,0,0-3,3,13.37,13.37,0,0,0-1.62,4.18,22.65,22.65,0,0,0-.5,4.79V66.43Z" transform="translate(12.69 12.19)"/><path class="cls-2" d="M298.73,73.27a16.49,16.49,0,0,0,4.07,2,18.23,18.23,0,0,0,5.87.83q4.82,0,7.2-2.66a10.1,10.1,0,0,0,2.38-7v-4.1q-.5.43-1.33,1.19A10.59,10.59,0,0,1,314.82,65a16.8,16.8,0,0,1-3,1.22,13.28,13.28,0,0,1-4,.54,15.94,15.94,0,0,1-6.52-1.26A13.7,13.7,0,0,1,296.57,62a14.8,14.8,0,0,1-3-5.26,21.15,21.15,0,0,1-1-6.66A18.41,18.41,0,0,1,294,42.92a16.93,16.93,0,0,1,3.85-5.69,17.41,17.41,0,0,1,5.94-3.74,21.28,21.28,0,0,1,7.7-1.33,38.21,38.21,0,0,1,7.63.72,34.15,34.15,0,0,1,5.69,1.58v32q0,7.27-4.21,11.27t-11.84,4a24.14,24.14,0,0,1-8.14-1.12A18.62,18.62,0,0,1,295.7,78Zm19.58-34.42q-.65-.22-2.2-.61a20.23,20.23,0,0,0-4.64-.4,13.18,13.18,0,0,0-5,.9,11.25,11.25,0,0,0-6.37,6.37,13,13,0,0,0-.9,4.9,16.62,16.62,0,0,0,.54,4.32,9.69,9.69,0,0,0,1.73,3.53,8.31,8.31,0,0,0,3,2.38,10.09,10.09,0,0,0,4.39.86,11.18,11.18,0,0,0,4.18-.72,8.38,8.38,0,0,0,3-1.91,8,8,0,0,0,1.73-2.66,8.34,8.34,0,0,0,.58-3.06Z" transform="translate(12.69 12.19)"/><path class="cls-2" d="M347.69,18.41H364a19.37,19.37,0,0,1,6.48,1A13.06,13.06,0,0,1,375,22a10.64,10.64,0,0,1,2.7,3.89,12.6,12.6,0,0,1,.9,4.75,10.08,10.08,0,0,1-.79,4.1,12.36,12.36,0,0,1-1.94,3.13A9.64,9.64,0,0,1,373.28,40a8.5,8.5,0,0,1-2.55,1,16,16,0,0,1,3.24.9A11.37,11.37,0,0,1,377.35,44,11.11,11.11,0,0,1,380,47.53,12.25,12.25,0,0,1,381.09,53a13.26,13.26,0,0,1-1.4,6.44,11.49,11.49,0,0,1-3.82,4.14,15.85,15.85,0,0,1-5.72,2.23,36.68,36.68,0,0,1-7.06.65H347.69Zm15.26,20a13,13,0,0,0,3.17-.4A9.14,9.14,0,0,0,369,36.77a6.66,6.66,0,0,0,2.09-2.23,6.51,6.51,0,0,0,.79-3.31,6.79,6.79,0,0,0-.79-3.49A5.82,5.82,0,0,0,369,25.64a8.24,8.24,0,0,0-2.88-1,20.14,20.14,0,0,0-3.17-.25h-8.57v14Zm-.21,22a36.4,36.4,0,0,0,3.89-.22,11.57,11.57,0,0,0,3.71-1,6.88,6.88,0,0,0,2.77-2.34,7.39,7.39,0,0,0,1.08-4.28,7.48,7.48,0,0,0-1-4.18,7.89,7.89,0,0,0-2.66-2.52,10.52,10.52,0,0,0-3.56-1.26,22.76,22.76,0,0,0-3.74-.32h-8.78V60.45Z" transform="translate(12.69 12.19)"/><path class="cls-2" d="M389.16,66.43V35q0-.65-.07-2.09h6.19l.22,5.4A17.34,17.34,0,0,1,397,36.44a11.24,11.24,0,0,1,2.27-1.91,14.23,14.23,0,0,1,3.1-1.48,12.41,12.41,0,0,1,4.07-.61,12.61,12.61,0,0,1,2,.14,9.35,9.35,0,0,1,1.69.43l-1.44,6a9.57,9.57,0,0,0-10.22,2.48,10.67,10.67,0,0,0-2.05,3.28,10.48,10.48,0,0,0-.76,4V66.43Z" transform="translate(12.69 12.19)"/><path class="cls-2" d="M444.09,61.53a20.36,20.36,0,0,1-1.73,1.66,14.55,14.55,0,0,1-3,1.94,23,23,0,0,1-4.32,1.62,21.37,21.37,0,0,1-5.65.68,19,19,0,0,1-7.13-1.3,15.78,15.78,0,0,1-5.54-3.67,16.45,16.45,0,0,1-3.56-5.69,20.48,20.48,0,0,1-1.26-7.34,19.08,19.08,0,0,1,1.22-6.88A16.42,16.42,0,0,1,416.59,37a16.59,16.59,0,0,1,5.29-3.71,16.32,16.32,0,0,1,6.73-1.37A15.53,15.53,0,0,1,436,33.6,14.78,14.78,0,0,1,441.11,38,18.82,18.82,0,0,1,444,44.25,28.56,28.56,0,0,1,445,51.6H418.53a10.1,10.1,0,0,0,1,4.1,10.36,10.36,0,0,0,2.41,3.24,11.62,11.62,0,0,0,3.46,2.16,10.74,10.74,0,0,0,4.1.79,14.94,14.94,0,0,0,7-1.44,14.31,14.31,0,0,0,4-2.81Zm-5.83-14.76a10.85,10.85,0,0,0-2.74-6.62,8.8,8.8,0,0,0-6.91-2.74,10.36,10.36,0,0,0-4.14.79,10,10,0,0,0-3.13,2.09,9.38,9.38,0,0,0-2,3,9.85,9.85,0,0,0-.79,3.49Z" transform="translate(12.69 12.19)"/><path class="cls-2" d="M460.51,49.15l-12-16.2h8.06L464.61,44l7.92-11.09h7.2l-11.66,15.7,13.32,17.78h-8.14L464,53.76l-9.14,12.67h-7.27Z" transform="translate(12.69 12.19)"/><path class="cls-2" d="M486.36,19.7h7.27V27h-7.27Zm.43,13.25h6.48V66.43h-6.48Z" transform="translate(12.69 12.19)"/><path class="cls-2" d="M505.37,38.35h-6v-5.4h6V22h6.48V32.95h9.79v5.4h-9.79V54.84q0,4,1.26,5.54a4.38,4.38,0,0,0,3.56,1.51,7.27,7.27,0,0,0,3.1-.58,9.58,9.58,0,0,0,2.45-1.73l3,4a12.36,12.36,0,0,1-9.5,3.82q-5.33,0-7.81-2.88t-2.48-9Z" transform="translate(12.69 12.19)"/></svg>