<?xml version="1.0" encoding="utf-8"?>
<!-- Generator: Adobe Illustrator 15.1.0, SVG Export Plug-In . SVG Version: 6.00 Build 0)  -->
<!DOCTYPE svg PUBLIC "-//W3C//DTD SVG 1.1//EN" "http://www.w3.org/Graphics/SVG/1.1/DTD/svg11.dtd">
<svg version="1.1" id="Layer_1" xmlns="http://www.w3.org/2000/svg" xmlns:xlink="http://www.w3.org/1999/xlink" x="0px" y="0px"
	 width="280px" height="22px" viewBox="-99.5 324.5 280 22" enable-background="new -99.5 324.5 280 22" xml:space="preserve">
<g>
	<path fill="#FFFFFF" d="M-77.921,324.98v5.69h-0.563c-0.334-1.313-0.705-2.256-1.112-2.83c-0.407-0.572-0.966-1.029-1.676-1.371
		c-0.396-0.186-1.09-0.278-2.082-0.278h-1.581v16.214c0,1.075,0.06,1.749,0.18,2.017c0.12,0.27,0.354,0.505,0.705,0.706
		c0.349,0.199,0.827,0.302,1.433,0.302h0.705v0.573h-11.116v-0.573h0.703c0.617,0,1.112-0.108,1.488-0.325
		c0.271-0.145,0.485-0.392,0.643-0.744c0.114-0.248,0.172-0.9,0.172-1.955v-16.214h-1.535c-1.43,0-2.469,0.3-3.115,0.897
		c-0.908,0.838-1.482,2.032-1.724,3.582h-0.594v-5.69H-77.921z"/>
	<path fill="#FFFFFF" d="M-67.994,335.895v6.51c0,1.075,0.061,1.749,0.181,2.017c0.119,0.27,0.354,0.505,0.705,0.706
		c0.349,0.199,0.821,0.302,1.417,0.302h0.704v0.573h-11.101v-0.573h0.705c0.615,0,1.111-0.108,1.487-0.325
		c0.271-0.145,0.479-0.392,0.625-0.744c0.115-0.248,0.173-0.9,0.173-1.955v-13.826c0-1.075-0.057-1.748-0.173-2.016
		c-0.113-0.27-0.346-0.506-0.697-0.707c-0.349-0.2-0.821-0.302-1.415-0.302h-0.705v-0.574h11.101v0.574h-0.704
		c-0.616,0-1.112,0.108-1.488,0.325c-0.271,0.146-0.485,0.393-0.643,0.745c-0.113,0.247-0.172,0.899-0.172,1.954v5.952h7.501v-5.952
		c0-1.075-0.058-1.748-0.172-2.016c-0.114-0.27-0.35-0.506-0.705-0.707c-0.354-0.2-0.829-0.302-1.425-0.302h-0.689v-0.574h11.086
		v0.574h-0.688c-0.626,0-1.122,0.108-1.487,0.325c-0.272,0.146-0.486,0.393-0.643,0.745c-0.115,0.247-0.172,0.899-0.172,1.954
		v13.826c0,1.075,0.057,1.749,0.172,2.017c0.115,0.27,0.35,0.505,0.705,0.706c0.355,0.199,0.83,0.302,1.425,0.302h0.688v0.573
		h-11.085v-0.573h0.688c0.627,0,1.122-0.108,1.488-0.325c0.271-0.145,0.485-0.392,0.642-0.744c0.114-0.248,0.172-0.9,0.172-1.955
		v-6.51H-67.994z"/>
	<path fill="#FFFFFF" d="M-43.082,326.191v8.557h0.423c1.347,0,2.322-0.42,2.928-1.257c0.606-0.835,0.992-2.07,1.159-3.703h0.596
		v11.006h-0.596c-0.125-1.197-0.389-2.18-0.791-2.945c-0.402-0.764-0.869-1.277-1.401-1.543c-0.532-0.263-1.305-0.395-2.318-0.395
		v5.923c0,1.157,0.051,1.866,0.149,2.124c0.1,0.259,0.285,0.471,0.557,0.635c0.271,0.166,0.71,0.249,1.315,0.249h1.269
		c1.983,0,3.572-0.454,4.768-1.366c1.195-0.908,2.055-2.294,2.576-4.153h0.579l-0.955,6.683h-18.352v-0.575h0.705
		c0.616,0,1.111-0.108,1.487-0.325c0.271-0.145,0.48-0.391,0.626-0.744c0.115-0.248,0.172-0.9,0.172-1.954v-13.827
		c0-0.953-0.025-1.537-0.078-1.754c-0.104-0.361-0.298-0.641-0.579-0.837c-0.396-0.288-0.939-0.434-1.629-0.434h-0.704v-0.574
		h17.771v6.218H-34c-0.303-1.52-0.729-2.611-1.276-3.272c-0.548-0.659-1.323-1.146-2.324-1.456
		c-0.586-0.187-1.682-0.279-3.288-0.279L-43.082,326.191L-43.082,326.191z"/>
	<path fill="#FFFFFF" d="M-10.67,345.429v0.573h-11.102v-0.573h0.705c0.615,0,1.111-0.108,1.487-0.325
		c0.271-0.145,0.48-0.392,0.627-0.744c0.114-0.248,0.172-0.9,0.172-1.955v-13.826c0-1.075-0.058-1.748-0.172-2.016
		c-0.115-0.27-0.348-0.506-0.696-0.707c-0.351-0.2-0.823-0.303-1.418-0.303h-0.705v-0.573h11.103v0.574h-0.705
		c-0.616,0-1.111,0.108-1.487,0.325c-0.272,0.146-0.486,0.393-0.643,0.745c-0.115,0.247-0.172,0.899-0.172,1.954v13.826
		c0,1.075,0.061,1.749,0.181,2.017c0.119,0.27,0.354,0.505,0.704,0.706c0.35,0.199,0.822,0.302,1.417,0.302H-10.67L-10.67,345.429z"
		/>
	<path fill="#FFFFFF" d="M-1.416,336.422v5.891c0,1.137,0.07,1.852,0.211,2.147s0.389,0.53,0.744,0.706
		c0.354,0.176,1.018,0.263,1.988,0.263v0.573H-9.339v-0.573c0.981,0,1.646-0.09,1.996-0.271c0.35-0.182,0.596-0.417,0.735-0.705
		c0.142-0.291,0.212-1.004,0.212-2.141V328.67c0-1.137-0.071-1.852-0.212-2.147c-0.14-0.295-0.389-0.53-0.743-0.706
		s-1.019-0.264-1.988-0.264v-0.573h9.863c2.568,0,4.447,0.175,5.638,0.528c1.189,0.351,2.16,0.998,2.912,1.944
		s1.128,2.056,1.128,3.325c0,1.551-0.564,2.833-1.691,3.846c-0.721,0.641-1.729,1.121-3.022,1.441l5.104,7.117
		c0.669,0.918,1.145,1.492,1.426,1.721c0.428,0.318,0.924,0.496,1.487,0.525v0.574H6.82l-6.843-9.58H-1.416L-1.416,336.422z
		 M-1.416,326.113v9.21h0.893c1.45,0,2.536-0.133,3.257-0.396s1.286-0.738,1.699-1.426c0.412-0.688,0.618-1.584,0.618-2.689
		c0-1.604-0.378-2.787-1.135-3.553c-0.757-0.763-1.976-1.146-3.657-1.146H-1.416z"/>
	<path fill="#FFFFFF" d="M24.967,345.429v0.573H13.865v-0.573h0.705c0.616,0,1.112-0.108,1.487-0.325
		c0.271-0.145,0.48-0.392,0.627-0.744c0.114-0.248,0.172-0.9,0.172-1.955v-13.826c0-1.075-0.058-1.748-0.172-2.016
		c-0.115-0.27-0.348-0.506-0.697-0.707c-0.35-0.2-0.821-0.303-1.417-0.303h-0.704v-0.573h11.101v0.574h-0.704
		c-0.617,0-1.112,0.108-1.488,0.325c-0.271,0.146-0.484,0.393-0.642,0.745c-0.114,0.247-0.172,0.899-0.172,1.954v13.826
		c0,1.075,0.061,1.749,0.18,2.017c0.12,0.27,0.354,0.505,0.705,0.706c0.35,0.199,0.821,0.302,1.418,0.302H24.967L24.967,345.429z"/>
	<path fill="#FFFFFF" d="M40.766,324.5l0.173,7.008h-0.643c-0.303-1.758-1.046-3.17-2.231-4.24c-1.185-1.07-2.465-1.605-3.844-1.605
		c-1.064,0-1.908,0.281-2.529,0.845c-0.621,0.565-0.932,1.214-0.932,1.946c0,0.467,0.11,0.879,0.329,1.242
		c0.303,0.484,0.788,0.966,1.456,1.441c0.49,0.341,1.623,0.945,3.397,1.813c2.484,1.211,4.159,2.353,5.025,3.428
		c0.856,1.075,1.284,2.305,1.284,3.688c0,1.758-0.691,3.271-2.074,4.537c-1.382,1.264-3.138,1.897-5.268,1.897
		c-0.668,0-1.3-0.067-1.896-0.2c-0.595-0.137-1.34-0.391-2.238-0.762c-0.502-0.205-0.914-0.309-1.237-0.309
		c-0.271,0-0.559,0.104-0.86,0.309c-0.304,0.208-0.549,0.523-0.737,0.946h-0.579v-7.938h0.579c0.46,2.233,1.344,3.935,2.654,5.108
		c1.31,1.172,2.723,1.759,4.235,1.759c1.169,0,2.101-0.314,2.796-0.946c0.693-0.629,1.041-1.363,1.041-2.2
		c0-0.495-0.134-0.976-0.4-1.442c-0.266-0.465-0.67-0.906-1.214-1.326c-0.542-0.417-1.502-0.964-2.88-1.635
		c-1.932-0.94-3.319-1.741-4.165-2.402c-0.845-0.662-1.495-1.4-1.949-2.217c-0.453-0.816-0.681-1.717-0.681-2.699
		c0-1.672,0.621-3.1,1.862-4.277c1.243-1.18,2.809-1.768,4.697-1.768c0.69,0,1.357,0.082,2.005,0.249
		c0.49,0.122,1.088,0.353,1.793,0.689c0.705,0.335,1.197,0.503,1.48,0.503c0.271,0,0.484-0.083,0.643-0.247
		c0.155-0.166,0.302-0.565,0.438-1.194H40.766z"/>
	<path fill="#FFFFFF" d="M52.305,335.895v6.51c0,1.075,0.062,1.749,0.181,2.017c0.12,0.27,0.355,0.505,0.705,0.706
		c0.35,0.199,0.821,0.302,1.417,0.302h0.704v0.573H44.211v-0.573h0.704c0.617,0,1.112-0.108,1.488-0.325
		c0.271-0.145,0.479-0.392,0.626-0.744c0.115-0.248,0.172-0.9,0.172-1.955v-13.826c0-1.075-0.057-1.748-0.172-2.016
		c-0.115-0.27-0.348-0.506-0.697-0.707c-0.35-0.2-0.821-0.303-1.418-0.303h-0.703v-0.573h11.101v0.574h-0.705
		c-0.615,0-1.111,0.108-1.487,0.325c-0.271,0.146-0.485,0.393-0.643,0.745c-0.115,0.247-0.172,0.899-0.172,1.954v5.952h7.5v-5.952
		c0-1.075-0.057-1.748-0.172-2.016c-0.114-0.27-0.351-0.506-0.704-0.707c-0.355-0.2-0.829-0.303-1.425-0.303h-0.689v-0.573H67.9
		v0.574h-0.689c-0.627,0-1.122,0.108-1.488,0.325c-0.271,0.146-0.484,0.393-0.643,0.745c-0.113,0.247-0.172,0.899-0.172,1.954
		v13.826c0,1.075,0.058,1.749,0.172,2.017c0.115,0.27,0.351,0.505,0.705,0.706c0.355,0.199,0.83,0.302,1.426,0.302h0.688v0.573
		H56.814v-0.573h0.688c0.626,0,1.121-0.108,1.487-0.325c0.271-0.145,0.485-0.392,0.642-0.744c0.115-0.248,0.173-0.9,0.173-1.955
		v-6.51H52.305z"/>
	<path fill="#FFFFFF" d="M96.146,324.98v5.69h-0.563c-0.333-1.313-0.704-2.256-1.111-2.83c-0.406-0.572-0.965-1.029-1.675-1.371
		c-0.396-0.186-1.091-0.278-2.083-0.278h-1.582v16.214c0,1.075,0.062,1.749,0.181,2.017c0.12,0.27,0.355,0.505,0.705,0.706
		c0.35,0.199,0.827,0.302,1.432,0.302h0.705v0.573H81.037v-0.573h0.703c0.617,0,1.113-0.108,1.488-0.325
		c0.271-0.145,0.485-0.392,0.643-0.744c0.114-0.248,0.172-0.9,0.172-1.955v-16.214h-1.534c-1.431,0-2.469,0.3-3.115,0.897
		c-0.909,0.838-1.483,2.032-1.724,3.582h-0.595v-5.69H96.146z"/>
	<path fill="#FFFFFF" d="M109.049,345.429v0.573H97.948v-0.573h0.706c0.615,0,1.11-0.108,1.486-0.325
		c0.271-0.145,0.48-0.392,0.626-0.744c0.115-0.248,0.172-0.9,0.172-1.955v-13.826c0-1.075-0.057-1.748-0.172-2.016
		c-0.114-0.27-0.346-0.506-0.695-0.707c-0.351-0.2-0.822-0.303-1.417-0.303h-0.706v-0.573h11.103v0.574h-0.705
		c-0.616,0-1.111,0.108-1.486,0.325c-0.272,0.146-0.486,0.393-0.644,0.745c-0.114,0.247-0.172,0.899-0.172,1.954v13.826
		c0,1.075,0.06,1.749,0.181,2.017c0.119,0.27,0.354,0.505,0.704,0.706c0.35,0.199,0.822,0.302,1.417,0.302H109.049L109.049,345.429z
		"/>
	<path fill="#FFFFFF" d="M125.067,338.84l5.762-13.859h8.644v0.573h-0.688c-0.627,0-1.127,0.108-1.503,0.325
		c-0.262,0.146-0.47,0.388-0.627,0.729c-0.114,0.25-0.173,0.895-0.173,1.938v13.858c0,1.075,0.059,1.749,0.173,2.017
		c0.115,0.27,0.351,0.505,0.705,0.706c0.354,0.199,0.83,0.302,1.425,0.302h0.688v0.573h-11.085v-0.573h0.688
		c0.626,0,1.127-0.108,1.503-0.325c0.261-0.145,0.471-0.392,0.627-0.744c0.114-0.248,0.172-0.9,0.172-1.955v-15.58l-8.143,19.18
		h-0.376l-8.267-19.039v14.805c0,1.033,0.025,1.67,0.078,1.908c0.135,0.517,0.431,0.937,0.884,1.262
		c0.454,0.327,1.168,0.488,2.138,0.488v0.574h-7.265v-0.574h0.219c0.47,0.012,0.908-0.064,1.316-0.224
		c0.406-0.161,0.714-0.376,0.924-0.644c0.208-0.27,0.369-0.646,0.484-1.133c0.021-0.112,0.032-0.641,0.032-1.582v-13.3
		c0-1.063-0.059-1.728-0.173-1.991c-0.115-0.266-0.351-0.498-0.705-0.699c-0.354-0.199-0.829-0.302-1.425-0.302h-0.673v-0.574h8.674
		L125.067,338.84z"/>
	<path fill="#FFFFFF" d="M148.789,326.191v8.557h0.422c1.347,0,2.321-0.42,2.928-1.257c0.605-0.835,0.992-2.07,1.16-3.703h0.594
		v11.006h-0.594c-0.126-1.197-0.391-2.18-0.792-2.945c-0.401-0.764-0.869-1.277-1.4-1.543c-0.533-0.263-1.306-0.395-2.317-0.395
		v5.923c0,1.157,0.048,1.866,0.148,2.124c0.1,0.259,0.283,0.471,0.556,0.635c0.271,0.166,0.71,0.249,1.315,0.249h1.269
		c1.983,0,3.572-0.454,4.768-1.366c1.195-0.908,2.054-2.294,2.575-4.153H160l-0.955,6.683h-18.352v-0.575h0.706
		c0.615,0,1.11-0.108,1.486-0.325c0.272-0.145,0.48-0.391,0.627-0.744c0.114-0.248,0.172-0.9,0.172-1.954v-13.827
		c0-0.953-0.026-1.537-0.078-1.754c-0.104-0.361-0.297-0.641-0.579-0.837c-0.396-0.288-0.939-0.434-1.628-0.434h-0.706v-0.574
		h17.771v6.218h-0.595c-0.303-1.52-0.728-2.611-1.276-3.272c-0.547-0.659-1.322-1.146-2.324-1.456
		c-0.585-0.187-1.681-0.279-3.288-0.279L148.789,326.191L148.789,326.191z"/>
	<path fill="#FFFFFF" d="M176.504,324.5l0.172,7.008h-0.643c-0.302-1.758-1.046-3.17-2.229-4.24
		c-1.186-1.07-2.467-1.605-3.845-1.605c-1.064,0-1.907,0.281-2.528,0.845c-0.622,0.565-0.932,1.214-0.932,1.946
		c0,0.467,0.11,0.879,0.328,1.242c0.303,0.484,0.789,0.966,1.457,1.441c0.489,0.341,1.623,0.945,3.397,1.813
		c2.484,1.211,4.159,2.353,5.026,3.428c0.855,1.075,1.283,2.305,1.283,3.688c0,1.758-0.691,3.271-2.074,4.537
		c-1.383,1.264-3.14,1.898-5.269,1.898c-0.668,0-1.3-0.066-1.896-0.201c-0.595-0.135-1.341-0.387-2.238-0.76
		c-0.502-0.206-0.914-0.31-1.237-0.31c-0.271,0-0.559,0.104-0.861,0.31c-0.303,0.207-0.548,0.523-0.736,0.945h-0.579v-7.938h0.579
		c0.46,2.233,1.344,3.935,2.654,5.108c1.311,1.172,2.723,1.759,4.235,1.759c1.169,0,2.101-0.314,2.796-0.946
		c0.694-0.629,1.041-1.363,1.041-2.2c0-0.495-0.134-0.976-0.4-1.442c-0.265-0.465-0.67-0.906-1.213-1.326
		c-0.543-0.417-1.503-0.964-2.881-1.635c-1.931-0.94-3.319-1.741-4.164-2.402c-0.846-0.662-1.496-1.4-1.95-2.217
		c-0.453-0.816-0.681-1.717-0.681-2.699c0-1.672,0.622-3.1,1.863-4.277c1.241-1.18,2.807-1.768,4.696-1.768
		c0.688,0,1.357,0.082,2.004,0.249c0.49,0.122,1.088,0.353,1.793,0.689c0.704,0.335,1.197,0.503,1.48,0.503
		c0.271,0,0.485-0.083,0.641-0.247c0.157-0.166,0.304-0.565,0.438-1.194H176.504z"/>
</g>
</svg>
